<svg height="512pt" viewBox="-26 0 512 512" width="512pt" xmlns="http://www.w3.org/2000/svg"><path d="m35.308594 203.035156h388.414062c19.503906 0 35.3125 15.808594 35.3125 35.308594v238.347656c0 19.5-15.808594 35.308594-35.3125 35.308594h-388.414062c-19.5 0-35.308594-15.808594-35.308594-35.308594v-238.347656c0-19.5 15.808594-35.308594 35.308594-35.308594zm0 0" fill="#2c3e50"/><path d="m459.035156 238.34375v35.3125h-459.035156v-35.3125c0-19.5 15.808594-35.308594 35.308594-35.308594h388.414062c19.503906 0 35.3125 15.808594 35.3125 35.308594zm0 0" fill="#285680"/><path d="m44.136719 247.171875c-2.335938-.035156-4.574219-.949219-6.265625-2.558594-.78125-.859375-1.40625-1.84375-1.855469-2.914062-.453125-1.0625-.691406-2.199219-.707031-3.355469-.023438-2.65625 1.164062-5.183594 3.222656-6.867188 2.058594-1.679687 4.769531-2.335937 7.371094-1.78125.554687.09375 1.089844.273438 1.589844.527344.5625.195313 1.097656.460938 1.589843.796875l1.324219 1.058594c.351562.441406.707031.882813 1.058594 1.410156.347656.453125.617187.960938.792968 1.503907.253907.5.433594 1.035156.53125 1.585937.101563.585937.160157 1.175781.175782 1.765625.03125 1.160156-.210938 2.308594-.707032 3.355469-.449218 1.070312-1.074218 2.054687-1.851562 2.914062l-1.324219 1.058594c-.492187.335937-1.027343.601563-1.589843.792969-.5.253906-1.035157.433594-1.589844.53125-.582032.101562-1.171875.160156-1.765625.175781zm0 0" fill="#e64c3c"/><path d="m79.449219 247.171875c-2.335938-.035156-4.574219-.949219-6.269531-2.558594-.777344-.859375-1.40625-1.84375-1.851563-2.914062-.453125-1.0625-.695313-2.199219-.707031-3.355469-.023438-2.65625 1.160156-5.183594 3.21875-6.867188 2.0625-1.679687 4.773437-2.335937 7.375-1.78125.550781.09375 1.085937.273438 1.589844.527344.5625.195313 1.09375.460938 1.585937.796875l1.324219 1.058594c.355468.441406.707031.882813 1.058594 1.410156.351562.453125.621093.960938.796874 1.503907.253907.5.429688 1.035156.527344 1.585937.101563.585937.164063 1.175781.179688 1.765625.027344 1.160156-.210938 2.308594-.707032 3.355469-.449218 1.070312-1.078124 2.054687-1.855468 2.914062l-1.324219 1.058594c-.492187.335937-1.023437.601563-1.585937.792969-.503907.253906-1.039063.433594-1.589844.53125-.585938.101562-1.175782.160156-1.765625.175781zm0 0" fill="#f0c419"/><path d="m114.757812 247.171875c-2.335937-.035156-4.574218-.949219-6.265624-2.558594-.78125-.859375-1.40625-1.84375-1.855469-2.914062-.453125-1.0625-.691407-2.199219-.707031-3.355469-.023438-2.65625 1.164062-5.183594 3.222656-6.867188 2.058594-1.679687 4.769531-2.335937 7.371094-1.78125.554687.09375 1.089843.273438 1.589843.527344.5625.195313 1.097657.460938 1.589844.796875l1.324219 1.058594c.351562.441406.703125.882813 1.058594 1.410156.347656.453125.617187.960938.792968 1.503907.253906.5.433594 1.035156.53125 1.585937.101563.585937.160156 1.175781.175782 1.765625.03125 1.160156-.210938 2.308594-.707032 3.355469-.449218 1.070312-1.074218 2.054687-1.851562 2.914062l-1.324219 1.058594c-.492187.335937-1.027344.601563-1.589844.792969-.5.253906-1.035156.433594-1.589843.53125-.582032.101562-1.171876.160156-1.765626.175781zm0 0" fill="#24ae5f"/><path d="m105.929688 158.898438h247.171874c9.753907 0 17.65625 7.902343 17.65625 17.652343v26.484375h-282.480468v-26.484375c0-9.75 7.902344-17.652343 17.652344-17.652343zm0 0" fill="#95a5a5"/><path d="m264.828125 32.042969c47.375 15.300781 79.46875 59.414062 79.449219 109.199219v17.65625h-229.519532v-17.65625c-.019531-49.785157 32.074219-93.898438 79.449219-109.199219zm0 0" fill="#ecf0f1"/><path d="m203.035156 0h52.964844c4.875 0 8.828125 3.953125 8.828125 8.828125v97.101563c0 9.753906-7.90625 17.65625-17.65625 17.65625h-35.308594c-9.75 0-17.65625-7.902344-17.65625-17.65625v-97.101563c0-4.875 3.953125-8.828125 8.828125-8.828125zm0 0" fill="#95a5a5"/><g fill="#e64c3c"><path d="m158.898438 441.378906h-79.449219c-3.199219 0-6.148438-1.726562-7.707031-4.519531-1.5625-2.792969-1.492188-6.210937.183593-8.933594l70.621094-114.757812c2.675781-3.855469 7.894531-4.945313 11.886719-2.484375 3.992187 2.460937 5.363281 7.617187 3.121094 11.734375l-62.304688 101.304687h63.648438c4.875 0 8.824218 3.953125 8.824218 8.828125s-3.949218 8.828125-8.824218 8.828125zm0 0"/><path d="m141.242188 467.863281c-4.875 0-8.828126-3.953125-8.828126-8.828125v-52.964844c0-4.875 3.953126-8.828124 8.828126-8.828124s8.828124 3.953124 8.828124 8.828124v52.964844c0 4.875-3.953124 8.828125-8.828124 8.828125zm0 0"/><path d="m379.585938 441.378906h-79.449219c-3.195313 0-6.144531-1.726562-7.707031-4.519531-1.558594-2.792969-1.488282-6.210937.1875-8.933594l70.621093-114.757812c2.671875-3.855469 7.890625-4.945313 11.882813-2.484375 3.992187 2.460937 5.363281 7.617187 3.125 11.734375l-62.308594 101.304687h63.648438c4.875 0 8.828124 3.953125 8.828124 8.828125s-3.953124 8.828125-8.828124 8.828125zm0 0"/><path d="m361.929688 467.863281c-4.875 0-8.828126-3.953125-8.828126-8.828125v-52.964844c0-4.875 3.953126-8.828124 8.828126-8.828124s8.828124 3.953124 8.828124 8.828124v52.964844c0 4.875-3.953124 8.828125-8.828124 8.828125zm0 0"/><path d="m247.171875 467.863281h-35.308594c-14.628906 0-26.484375-11.859375-26.484375-26.484375v-105.929687c0-14.628907 11.855469-26.484375 26.484375-26.484375h35.308594c14.625 0 26.484375 11.855468 26.484375 26.484375v105.929687c0 14.625-11.859375 26.484375-26.484375 26.484375zm-35.308594-141.242187c-4.875 0-8.828125 3.953125-8.828125 8.828125v105.929687c0 4.875 3.953125 8.828125 8.828125 8.828125h35.308594c4.875 0 8.828125-3.953125 8.828125-8.828125v-105.929687c0-4.875-3.953125-8.828125-8.828125-8.828125zm0 0"/></g><path d="m158.898438 114.757812h-41.050782c4.847656-20.539062 15.300782-39.332031 30.191406-54.289062zm0 0" fill="#bdc3c7"/><path d="m341.1875 114.757812h-41.050781l10.859375-54.289062c14.890625 14.957031 25.339844 33.75 30.191406 54.289062zm0 0" fill="#bdc3c7"/></svg>