<?xml version="1.0" encoding="iso-8859-1"?>
<!-- Generator: Adobe Illustrator 19.0.0, SVG Export Plug-In . SVG Version: 6.00 Build 0)  -->
<svg version="1.1" id="Layer_1" xmlns="http://www.w3.org/2000/svg" xmlns:xlink="http://www.w3.org/1999/xlink" x="0px" y="0px"
	 viewBox="0 0 512 512" style="enable-background:new 0 0 512 512;" xml:space="preserve">
<path style="fill:#1C3D66;" d="M493.268,512H18.732C8.387,512,0,503.613,0,493.268V18.732C0,8.387,8.387,0,18.732,0h474.537
	C503.613,0,512,8.387,512,18.732v474.537C512,503.613,503.613,512,493.268,512z"/>
<path style="fill:#163457;" d="M493.268,0H256v512h237.268c10.345,0,18.732-8.387,18.732-18.732V18.732
	C512,8.387,503.613,0,493.268,0z"/>
<path style="fill:#EFEFEF;" d="M206.154,184.183c-17.117,0-27.026,9.609-27.026,30.029v79.576c0,20.42,9.909,30.029,27.326,30.029
	c24.023,0,25.524-18.32,26.425-30.029c0.9-11.112,11.109-14.115,23.122-14.115c16.214,0,23.722,4.205,23.722,22.222
	c0,39.938-32.431,62.759-75.371,62.759c-39.337,0-72.068-19.217-72.068-70.866v-79.576c0-51.648,32.732-70.868,72.068-70.868
	c42.942,0,75.371,21.621,75.371,59.757c0,18.017-7.508,22.222-23.422,22.222c-12.613,0-22.821-3.303-23.422-14.112
	C232.578,203.403,231.677,184.183,206.154,184.183z"/>
<g>
	<path style="fill:#C5D8DF;" d="M256.301,225.322c15.914,0,23.422-4.205,23.422-22.222c0-20.052-8.976-35.53-23.723-45.709v67.926
		C256.101,225.317,256.2,225.322,256.301,225.322z"/>
	<path style="fill:#C5D8DF;" d="M256.001,279.673L256.001,279.673L256,349.861c14.747-10.706,23.723-26.965,23.723-47.966
		C279.723,283.878,272.215,279.673,256.001,279.673z"/>
	<path style="fill:#C5D8DF;" d="M347.589,219.916h33.932c7.508,0,11.411,8.407,11.411,16.515c0,8.409-3.904,16.518-11.411,16.518
		h-33.932v95.79c0,8.409-11.11,14.115-23.723,14.115c-12.912,0-22.82-5.704-22.82-14.115V198.599
		c0-34.835,24.022-60.359,52.85-60.359h21.62c11.711,0,17.415,9.91,17.415,19.52c0,9.91-5.704,19.517-17.415,19.517h-11.411
		c-9.609,0-16.516,5.105-16.516,16.217v26.423H347.589z"/>
</g>
<g>
</g>
<g>
</g>
<g>
</g>
<g>
</g>
<g>
</g>
<g>
</g>
<g>
</g>
<g>
</g>
<g>
</g>
<g>
</g>
<g>
</g>
<g>
</g>
<g>
</g>
<g>
</g>
<g>
</g>
</svg>
